HIERARCHY
ROOT Hips
{
	OFFSET 0.000000 0.000000 0.000000 
	CHANNELS 6 Xposition Yposition Zposition Zrotation Xrotation Yrotation
	JOINT Spine
	{
		OFFSET -0.015549 8.493394 0.036570 
		CHANNELS 3 Zrotation Xrotation Yrotation
		JOINT Spine1
		{
			OFFSET -0.000602 19.464224 0.099956 
			CHANNELS 3 Zrotation Xrotation Yrotation
			JOINT Neck
			{
				OFFSET 0.017239 22.921419 0.097654 
				CHANNELS 3 Zrotation Xrotation Yrotation
				JOINT Head
				{
					OFFSET 0.029705 15.670371 1.984096 
					CHANNELS 3 Zrotation Xrotation Yrotation
					End Site
					{
						OFFSET -0.000000 19.661171 0.000000 
					}
				}
			}
			JOINT LeftShoulder
			{
				OFFSET 3.911932 16.465139 -0.300542 
				CHANNELS 3 Zrotation Xrotation Yrotation
				JOINT LeftArm
				{
					OFFSET 19.748520 0.432372 0.012204 
					CHANNELS 3 Zrotation Xrotation Yrotation
					JOINT LeftForeArm
					{
						OFFSET 25.174046 0.159711 0.091826 
						CHANNELS 3 Zrotation Xrotation Yrotation
						JOINT LeftHand
						{
							OFFSET 27.310062 0.079367 0.141115 
							CHANNELS 3 Zrotation Xrotation Yrotation
							End Site
							{
								OFFSET 14.745877 0.000000 0.000000 
							}
						}
					}
				}
			}
			JOINT RightShoulder
			{
				OFFSET -3.913523 16.464996 -0.300551 
				CHANNELS 3 Zrotation Xrotation Yrotation
				JOINT RightArm
				{
					OFFSET -19.750706 0.431442 0.025545 
					CHANNELS 3 Zrotation Xrotation Yrotation
					JOINT RightForeArm
					{
						OFFSET -25.176556 0.184172 0.045601 
						CHANNELS 3 Zrotation Xrotation Yrotation
						JOINT RightHand
						{
							OFFSET -26.617605 0.132531 0.113586 
							CHANNELS 3 Zrotation Xrotation Yrotation
							End Site
							{
								OFFSET -14.745877 0.000000 0.000000 
							}
						}
					}
				}
			}
		}
	}
	JOINT LeftUpLeg
	{
		OFFSET 9.815043 0.432318 0.036562 
		CHANNELS 3 Zrotation Xrotation Yrotation
		JOINT LeftLeg
		{
			OFFSET 0.022519 -46.041405 0.007056 
			CHANNELS 3 Zrotation Xrotation Yrotation
			JOINT LeftFoot
			{
				OFFSET 0.040150 -29.861650 0.053177 
				CHANNELS 3 Zrotation Xrotation Yrotation
				JOINT LeftToeBase
				{
					OFFSET 0.038633 -5.958652 14.778426 
					CHANNELS 3 Zrotation Xrotation Yrotation
					End Site
					{
						OFFSET -0.000000 0.000000 3.932234 
					}
				}
			}
		}
	}
	JOINT RightUpLeg
	{
		OFFSET -9.846143 0.432402 0.036572 
		CHANNELS 3 Zrotation Xrotation Yrotation
		JOINT RightLeg
		{
			OFFSET -0.069749 -46.047760 0.036518 
			CHANNELS 3 Zrotation Xrotation Yrotation
			JOINT RightFoot
			{
				OFFSET -0.000450 -29.856411 -0.006277 
				CHANNELS 3 Zrotation Xrotation Yrotation
				JOINT RightToeBase
				{
					OFFSET -0.000451 -5.955752 14.739580 
					CHANNELS 3 Zrotation Xrotation Yrotation
					End Site
					{
						OFFSET -0.000000 0.000000 3.932234 
					}
				}
			}
		}
	}
}
MOTION
Frames: 15
Frame Time: 0.010000
0.000000 83.047256 0.000000 -1.757500 2.991416 3.658978 1.905144 -8.508192 -0.219997 2.410272 0.331766 -0.139549 1.319667 10.907420 2.457224 -0.139036 10.246123 2.865520 2.955505 11.388064 2.473371 -71.854820 26.616407 -22.132845 -11.570621 1.626714 -7.358712 2.660806 0.938248 7.606228 -8.085405 10.632534 -11.325607 58.582642 50.168411 34.157471 6.034513 -10.541306 5.953778 -7.485883 -10.768216 -2.724117 5.094400 4.083779 3.861488 2.190864 -6.315460 -1.289600 0.260902 2.953070 -1.526742 0.000000 0.000000 0.000000 -6.553526 -1.090880 6.925804 9.397486 5.652373 -13.548660 0.000000 0.000000 0.000000 0.000000 0.000000 0.000000 
0.000853 83.045158 0.007119 -1.755211 2.991482 3.660402 1.916244 -8.493652 -0.227022 2.394900 0.309861 -0.141638 1.317794 10.893764 2.461103 -0.119577 10.262656 2.864736 2.962565 11.419946 2.506055 -71.830246 26.624434 -22.174400 -11.578495 1.633403 -7.356581 2.665849 0.944864 7.606639 -8.079411 10.623565 -11.326620 58.592903 50.165951 34.140388 6.035954 -10.528569 5.955324 -7.457429 -10.756037 -2.727291 5.091348 4.089643 3.861967 2.194046 -6.311997 -1.273939 0.214914 2.928533 -1.516082 0.000000 0.000000 0.000000 -6.557686 -1.079024 6.927146 9.394697 5.636909 -13.501772 0.000000 0.000000 0.000000 0.000000 0.000000 0.000000 
0.001604 83.043633 0.013443 -1.752863 2.992139 3.661641 1.924584 -8.484626 -0.233393 2.383777 0.295894 -0.143062 1.317246 10.882887 2.463434 -0.103581 10.272964 2.863428 2.968540 11.441983 2.528133 -71.811363 26.630880 -22.204414 -11.582514 1.637926 -7.354817 2.668724 0.949541 7.605454 -8.074286 10.615880 -11.326682 58.598396 50.164936 34.128601 6.036692 -10.520858 5.957021 -7.438652 -10.748567 -2.731675 5.087880 4.094128 3.863206 2.198187 -6.308055 -1.262187 0.181553 2.908151 -1.510910 0.000000 0.000000 0.000000 -6.561275 -1.070110 6.926661 9.392386 5.625988 -13.470061 0.000000 0.000000 0.000000 0.000000 0.000000 0.000000 
0.002262 83.042603 0.019057 -1.750763 2.993612 3.662504 1.931381 -8.479842 -0.238117 2.375394 0.287623 -0.144840 1.317842 10.874008 2.464460 -0.089958 10.278683 2.861594 2.973991 11.456657 2.542357 -71.796646 26.636219 -22.225914 -11.583611 1.640566 -7.353371 2.669585 0.952260 7.602805 -8.069553 10.608488 -11.326089 58.600426 50.165512 34.120251 6.036951 -10.516515 5.958445 -7.426231 -10.744262 -2.736652 5.084080 4.096896 3.865495 2.204462 -6.304046 -1.256013 0.156079 2.892242 -1.508501 0.000000 0.000000 0.000000 -6.564245 -1.064055 6.925541 9.390674 5.618597 -13.449698 0.000000 0.000000 0.000000 0.000000 0.000000 0.000000 
0.002830 83.041939 0.024137 -1.748900 2.996324 3.663128 1.937911 -8.476862 -0.242182 2.367976 0.280524 -0.146266 1.317862 10.865651 2.465165 -0.075949 10.283592 2.859216 2.979393 11.467052 2.552422 -71.784073 26.642372 -22.242023 -11.583015 1.641245 -7.352212 2.670250 0.952999 7.598418 -8.066278 10.600101 -11.325017 58.604652 50.167233 34.110046 6.036451 -10.512476 5.959296 -7.414202 -10.740190 -2.741583 5.079545 4.096853 3.869104 2.212012 -6.298345 -1.250295 0.134177 2.878159 -1.507699 0.000000 0.000000 0.000000 -6.566897 -1.060395 6.924777 9.389084 5.612750 -13.431789 0.000000 0.000000 0.000000 0.000000 0.000000 0.000000 
0.003395 83.041573 0.028926 -1.747201 2.999255 3.663501 1.944306 -8.477261 -0.245952 2.360641 0.278569 -0.147039 1.319447 10.857963 2.464990 -0.063434 10.285743 2.856601 2.985629 11.472754 2.557333 -71.773949 26.648232 -22.253853 -11.580192 1.640520 -7.350612 2.670085 0.952475 7.592308 -8.062663 10.589685 -11.322286 58.610123 50.169701 34.097622 6.035815 -10.510425 5.959588 -7.407337 -10.737935 -2.746815 5.074919 4.096152 3.872584 2.218714 -6.292932 -1.244631 0.122069 2.867611 -1.509849 0.000000 0.000000 0.000000 -6.569084 -1.058400 6.923604 9.387734 5.609664 -13.421197 0.000000 0.000000 0.000000 0.000000 0.000000 0.000000 
0.003979 83.041443 0.033570 -1.745523 3.002068 3.663544 1.950695 -8.480608 -0.247926 2.352713 0.281436 -0.148185 1.323292 10.850642 2.463643 -0.052568 10.285750 2.853643 2.993271 11.474447 2.557127 -71.765579 26.653679 -22.262497 -11.576400 1.638908 -7.348728 2.667989 0.951159 7.585923 -8.057332 10.577129 -11.317785 58.615894 50.174068 34.082706 6.033766 -10.511133 5.959144 -7.404001 -10.738235 -2.752490 5.070868 4.096207 3.874579 2.224135 -6.290448 -1.242495 0.116667 2.862532 -1.511066 0.000000 0.000000 0.000000 -6.570879 -1.057571 6.921677 9.386384 5.609273 -13.416760 0.000000 0.000000 0.000000 0.000000 0.000000 0.000000 
0.004550 83.041481 0.038041 -1.743854 3.005382 3.663401 1.957683 -8.484742 -0.248698 2.343389 0.284987 -0.148860 1.328600 10.842533 2.461579 -0.042163 10.286356 2.850392 3.002341 11.473866 2.553860 -71.757538 26.661846 -22.270008 -11.571546 1.635445 -7.346070 2.663112 0.947810 7.579713 -8.051175 10.561906 -11.312059 58.624489 50.181927 34.062691 6.029092 -10.513499 5.958051 -7.397940 -10.740077 -2.757946 5.067369 4.095797 3.875040 2.226948 -6.289281 -1.239032 0.114971 2.860252 -1.511153 0.000000 0.000000 0.000000 -6.572589 -1.057876 6.919692 9.385017 5.609699 -13.412560 0.000000 0.000000 0.000000 0.000000 0.000000 0.000000 
0.005177 83.041687 0.042396 -1.742133 3.008507 3.663111 1.965178 -8.492435 -0.248611 2.331853 0.294756 -0.148834 1.338181 10.834005 2.458074 -0.034557 10.284701 2.847189 3.013546 11.469767 2.545137 -71.750237 26.671270 -22.276264 -11.564846 1.629203 -7.342647 2.655155 0.941835 7.573518 -8.042329 10.541638 -11.303555 58.635960 50.193546 34.035919 6.021595 -10.519773 5.956563 -7.393964 -10.745565 -2.763878 5.064022 4.095292 3.874364 2.226725 -6.287197 -1.230470 0.124892 2.858853 -1.516387 0.000000 0.000000 0.000000 -6.574173 -1.059075 6.917047 9.384187 5.612550 -13.414776 0.000000 0.000000 0.000000 0.000000 0.000000 0.000000 
0.005870 83.042038 0.046707 -1.740244 3.011041 3.662623 1.973909 -8.504499 -0.246856 2.316060 0.312912 -0.148828 1.353458 10.824654 2.452947 -0.029766 10.279538 2.844217 3.028267 11.461928 2.530334 -71.743927 26.682768 -22.281858 -11.554770 1.618891 -7.338214 2.643894 0.931964 7.567051 -8.029543 10.513818 -11.291281 58.651585 50.210594 33.999840 6.010566 -10.531266 5.954973 -7.392329 -10.755963 -2.770941 5.060763 4.095515 3.872743 2.224576 -6.285232 -1.220466 0.144174 2.859136 -1.524571 0.000000 0.000000 0.000000 -6.575637 -1.060702 6.913433 9.383750 5.617807 -13.423547 0.000000 0.000000 0.000000 0.000000 0.000000 0.000000 
0.006590 83.042488 0.050987 -1.737963 3.013620 3.662231 1.985507 -8.519289 -0.243718 2.293114 0.336354 -0.148675 1.374554 10.813326 2.446076 -0.027645 10.273527 2.841292 3.047448 11.450985 2.511400 -71.737785 26.699366 -22.286701 -11.540780 1.603520 -7.333968 2.629499 0.916979 7.560365 -8.012531 10.477690 -11.275228 58.673988 50.234013 33.951691 5.995062 -10.546388 5.953960 -7.391627 -10.769766 -2.777265 5.058626 4.096643 3.868426 2.219130 -6.286326 -1.212022 0.165758 2.862795 -1.531564 0.000000 0.000000 0.000000 -6.577731 -1.062546 6.909889 9.383824 5.623144 -13.433757 0.000000 0.000000 0.000000 0.000000 0.000000 0.000000 
0.007473 83.042908 0.055539 -1.735647 3.015724 3.661956 1.999571 -8.534738 -0.240571 2.265177 0.362192 -0.148265 1.400614 10.801273 2.437300 -0.030363 10.267447 2.838519 3.068703 11.440182 2.493199 -71.730705 26.717772 -22.293526 -11.525927 1.586218 -7.330159 2.613960 0.900103 7.554158 -7.992164 10.438873 -11.257660 58.698837 50.257500 33.898453 5.978789 -10.561264 5.954194 -7.396609 -10.783421 -2.781136 5.058060 4.099331 3.861496 2.208989 -6.289673 -1.200647 0.192807 2.867763 -1.543005 0.000000 0.000000 0.000000 -6.580140 -1.063798 6.906126 9.383979 5.628372 -13.446381 0.000000 0.000000 0.000000 0.000000 0.000000 0.000000 
0.008571 83.043167 0.060432 -1.733847 3.017451 3.661431 2.011929 -8.546415 -0.238738 2.242481 0.381794 -0.148073 1.422226 10.791567 2.429642 -0.032962 10.262004 2.835937 3.085288 11.433251 2.481371 -71.722931 26.732290 -22.302126 -11.515289 1.572488 -7.327094 2.601327 0.886461 7.549277 -7.975743 10.408636 -11.243257 58.719440 50.273666 33.854256 5.966244 -10.571068 5.954829 -7.400878 -10.792281 -2.783927 5.057541 4.102212 3.855678 2.198651 -6.291926 -1.186604 0.219465 2.870467 -1.556618 0.000000 0.000000 0.000000 -6.582276 -1.064311 6.902785 9.384024 5.632906 -13.456462 0.000000 0.000000 0.000000 0.000000 0.000000 0.000000 
0.009808 83.043343 0.065462 -1.732459 3.019362 3.660594 2.020641 -8.552791 -0.238401 2.228982 0.391386 -0.148211 1.434740 10.784943 2.424852 -0.031734 10.257977 2.833443 3.094903 11.429505 2.475827 -71.715546 26.742361 -22.309229 -11.509682 1.563052 -7.325240 2.593077 0.877056 7.545695 -7.966777 10.390346 -11.233625 58.734875 50.281620 33.823109 5.957597 -10.574680 5.954909 -7.397935 -10.795303 -2.786847 5.056327 4.104392 3.852242 2.191758 -6.293496 -1.176320 0.237023 2.872078 -1.565002 0.000000 0.000000 0.000000 -6.584272 -1.064486 6.900256 9.384019 5.636128 -13.459483 0.000000 0.000000 0.000000 0.000000 0.000000 0.000000 
0.011149 83.043442 0.070528 -1.731413 3.021634 3.659494 2.026750 -8.555597 -0.239069 2.222128 0.393884 -0.148611 1.440463 10.780329 2.422175 -0.027399 10.255144 2.830996 3.099449 11.428062 2.474842 -71.708389 26.748960 -22.315218 -11.507924 1.556890 -7.324515 2.588064 0.870819 7.543159 -7.963252 10.380568 -11.227450 58.746422 50.283752 33.801506 5.951853 -10.573915 5.954669 -7.389900 -10.794188 -2.789831 5.054782 4.106102 3.850437 2.188537 -6.295723 -1.172920 0.245123 2.874166 -1.566862 0.000000 0.000000 0.000000 -6.586124 -1.064732 6.898356 9.383919 5.638574 -13.457383 0.000000 0.000000 0.000000 0.000000 0.000000 0.000000 
